name ../IE_Laxity/ie_30.mot
datacolumns  10
datarows 52
range   14.00000000 14.51000000
cursor 1.0 1.0 0.0
keys m_key
wrap
enforce_loops no
enforce_constraints no
calc_derivatives -1.000000
event_color 0.000000 0.000000 0.000000
endheader
            time femur_r_force_vx femur_r_force_vy femur_r_force_vz femur_r_force_px femur_r_force_py femur_r_force_pz femur_r_torque_x femur_r_torque_y femur_r_torque_z 
     14.00000000       0.00000000       0.00000000       0.00000000      -0.03798529      -0.50443412       0.00000000      -0.05553399      -0.09618770       0.00000000 
     14.01000000       0.00000000       0.00000000       0.00000000      -0.03798529      -0.50443412       0.00000000      -0.05371155      -0.09303113       0.00000000 
     14.02000000       0.00000000       0.00000000       0.00000000      -0.03798529      -0.50443412       0.00000000      -0.05191885      -0.08992609       0.00000000 
     14.03000000       0.00000000       0.00000000       0.00000000      -0.03798529      -0.50443412       0.00000000      -0.05015595      -0.08687265       0.00000000 
     14.04000000       0.00000000       0.00000000       0.00000000      -0.03798529      -0.50443412       0.00000000      -0.04842288      -0.08387089       0.00000000 
     14.05000000       0.00000000       0.00000000       0.00000000      -0.03798529      -0.50443412       0.00000000      -0.04671969      -0.08092088       0.00000000 
     14.06000000       0.00000000       0.00000000       0.00000000      -0.03798529      -0.50443412       0.00000000      -0.04504642      -0.07802270       0.00000000 
     14.07000000       0.00000000       0.00000000       0.00000000      -0.03798529      -0.50443412       0.00000000      -0.04340312      -0.07517641       0.00000000 
     14.08000000       0.00000000       0.00000000       0.00000000      -0.03798529      -0.50443412       0.00000000      -0.04178982      -0.07238209       0.00000000 
     14.09000000       0.00000000       0.00000000       0.00000000      -0.03798529      -0.50443412       0.00000000      -0.04020656      -0.06963981       0.00000000 
     14.10000000       0.00000000       0.00000000       0.00000000      -0.03798529      -0.50443412       0.00000000      -0.03865339      -0.06694964       0.00000000 
     14.11000000       0.00000000       0.00000000       0.00000000      -0.03798529      -0.50443412       0.00000000      -0.03713034      -0.06431164       0.00000000 
     14.12000000       0.00000000       0.00000000       0.00000000      -0.03798529      -0.50443412       0.00000000      -0.03563745      -0.06172588       0.00000000 
     14.13000000       0.00000000       0.00000000       0.00000000      -0.03798529      -0.50443412       0.00000000      -0.03417476      -0.05919242       0.00000000 
     14.14000000       0.00000000       0.00000000       0.00000000      -0.03798529      -0.50443412       0.00000000      -0.03274230      -0.05671133       0.00000000 
     14.15000000       0.00000000       0.00000000       0.00000000      -0.03798529      -0.50443412       0.00000000      -0.03134011      -0.05428266       0.00000000 
     14.16000000       0.00000000       0.00000000       0.00000000      -0.03798529      -0.50443412       0.00000000      -0.02996822      -0.05190649       0.00000000 
     14.17000000       0.00000000       0.00000000       0.00000000      -0.03798529      -0.50443412       0.00000000      -0.02862668      -0.04958286       0.00000000 
     14.18000000       0.00000000       0.00000000       0.00000000      -0.03798529      -0.50443412       0.00000000      -0.02731550      -0.04731183       0.00000000 
     14.19000000       0.00000000       0.00000000       0.00000000      -0.03798529      -0.50443412       0.00000000      -0.02603473      -0.04509347       0.00000000 
     14.20000000       0.00000000       0.00000000       0.00000000      -0.03798529      -0.50443412       0.00000000      -0.02478439      -0.04292782       0.00000000 
     14.21000000       0.00000000       0.00000000       0.00000000      -0.03798529      -0.50443412       0.00000000      -0.02356452      -0.04081495       0.00000000 
     14.22000000       0.00000000       0.00000000       0.00000000      -0.03798529      -0.50443412       0.00000000      -0.02237515      -0.03875489       0.00000000 
     14.23000000       0.00000000       0.00000000       0.00000000      -0.03798529      -0.50443412       0.00000000      -0.02121630      -0.03674772       0.00000000 
     14.24000000       0.00000000       0.00000000       0.00000000      -0.03798529      -0.50443412       0.00000000      -0.02008801      -0.03479346       0.00000000 
     14.25000000       0.00000000       0.00000000       0.00000000      -0.03798529      -0.50443412       0.00000000      -0.01899031      -0.03289218       0.00000000 
     14.26000000       0.00000000       0.00000000       0.00000000      -0.03798529      -0.50443412       0.00000000      -0.01792321      -0.03104392       0.00000000 
     14.27000000       0.00000000       0.00000000       0.00000000      -0.03798529      -0.50443412       0.00000000      -0.01688676      -0.02924872       0.00000000 
     14.28000000       0.00000000       0.00000000       0.00000000      -0.03798529      -0.50443412       0.00000000      -0.01588096      -0.02750664       0.00000000 
     14.29000000       0.00000000       0.00000000       0.00000000      -0.03798529      -0.50443412       0.00000000      -0.01490586      -0.02581771       0.00000000 
     14.30000000       0.00000000       0.00000000       0.00000000      -0.03798529      -0.50443412       0.00000000      -0.01396147      -0.02418197       0.00000000 
     14.31000000       0.00000000       0.00000000       0.00000000      -0.03798529      -0.50443412       0.00000000      -0.01304781      -0.02259947       0.00000000 
     14.32000000       0.00000000       0.00000000       0.00000000      -0.03798529      -0.50443412       0.00000000      -0.01216491      -0.02107025       0.00000000 
     14.33000000       0.00000000       0.00000000       0.00000000      -0.03798529      -0.50443412       0.00000000      -0.01131280      -0.01959434       0.00000000 
     14.34000000       0.00000000       0.00000000       0.00000000      -0.03798529      -0.50443412       0.00000000      -0.01049148      -0.01817178       0.00000000 
     14.35000000       0.00000000       0.00000000       0.00000000      -0.03798529      -0.50443412       0.00000000      -0.00970099      -0.01680261       0.00000000 
     14.36000000       0.00000000       0.00000000       0.00000000      -0.03798529      -0.50443412       0.00000000      -0.00894134      -0.01548686       0.00000000 
     14.37000000       0.00000000       0.00000000       0.00000000      -0.03798529      -0.50443412       0.00000000      -0.00821255      -0.01422456       0.00000000 
     14.38000000       0.00000000       0.00000000       0.00000000      -0.03798529      -0.50443412       0.00000000      -0.00751464      -0.01301574       0.00000000 
     14.39000000       0.00000000       0.00000000       0.00000000      -0.03798529      -0.50443412       0.00000000      -0.00684763      -0.01186044       0.00000000 
     14.40000000       0.00000000       0.00000000       0.00000000      -0.03798529      -0.50443412       0.00000000      -0.00621153      -0.01075869       0.00000000 
     14.41000000       0.00000000       0.00000000       0.00000000      -0.03798529      -0.50443412       0.00000000      -0.00560636      -0.00971050       0.00000000 
     14.42000000       0.00000000       0.00000000       0.00000000      -0.03798529      -0.50443412       0.00000000      -0.00503213      -0.00871591       0.00000000 
     14.43000000       0.00000000       0.00000000       0.00000000      -0.03798529      -0.50443412       0.00000000      -0.00448886      -0.00777494       0.00000000 
     14.44000000       0.00000000       0.00000000       0.00000000      -0.03798529      -0.50443412       0.00000000      -0.00397657      -0.00688761       0.00000000 
     14.45000000       0.00000000       0.00000000       0.00000000      -0.03798529      -0.50443412       0.00000000      -0.00349525      -0.00605396       0.00000000 
     14.46000000       0.00000000       0.00000000       0.00000000      -0.03798529      -0.50443412       0.00000000      -0.00304494      -0.00527399       0.00000000 
     14.47000000       0.00000000       0.00000000       0.00000000      -0.03798529      -0.50443412       0.00000000      -0.00262563      -0.00454772       0.00000000 
     14.48000000       0.00000000       0.00000000       0.00000000      -0.03798529      -0.50443412       0.00000000      -0.00223734      -0.00387518       0.00000000 
     14.49000000       0.00000000       0.00000000       0.00000000      -0.03798529      -0.50443412       0.00000000      -0.00188007      -0.00325639       0.00000000 
     14.50000000       0.00000000       0.00000000       0.00000000      -0.03798529      -0.50443412       0.00000000      -0.00155385      -0.00269134       0.00000000 
     14.51000000       0.00000000       0.00000000       0.00000000      -0.03798529      -0.50443412       0.00000000       0.00000000       0.00000000       0.00000000 
